<svg width="210" height="65" viewBox="0 0 210 65" fill="none" xmlns="http://www.w3.org/2000/svg">
<path d="M15.3125 16.7344H25.9766C30.8359 16.7344 34.3594 17.4297 36.5469 18.8203C38.75 20.1953 39.8516 22.3906 39.8516 25.4062C39.8516 27.4531 39.3672 29.1328 38.3984 30.4453C37.4453 31.7578 36.1719 32.5469 34.5781 32.8125V33.0469C36.75 33.5312 38.3125 34.4375 39.2656 35.7656C40.2344 37.0938 40.7188 38.8594 40.7188 41.0625C40.7188 44.1875 39.5859 46.625 37.3203 48.375C35.0703 50.125 32.0078 51 28.1328 51H15.3125V16.7344ZM22.5781 30.3047H26.7969C28.7656 30.3047 30.1875 30 31.0625 29.3906C31.9531 28.7812 32.3984 27.7734 32.3984 26.3672C32.3984 25.0547 31.9141 24.1172 30.9453 23.5547C29.9922 22.9766 28.4766 22.6875 26.3984 22.6875H22.5781V30.3047ZM22.5781 36.0703V45H27.3125C29.3125 45 30.7891 44.6172 31.7422 43.8516C32.6953 43.0859 33.1719 41.9141 33.1719 40.3359C33.1719 37.4922 31.1406 36.0703 27.0781 36.0703H22.5781ZM75.4531 16.7344V38.9062C75.4531 41.4375 74.8828 43.6562 73.7422 45.5625C72.6172 47.4688 70.9844 48.9297 68.8438 49.9453C66.7031 50.9609 64.1719 51.4688 61.25 51.4688C56.8438 51.4688 53.4219 50.3438 50.9844 48.0938C48.5469 45.8281 47.3281 42.7344 47.3281 38.8125V16.7344H54.5703V37.7109C54.5703 40.3516 55.1016 42.2891 56.1641 43.5234C57.2266 44.7578 58.9844 45.375 61.4375 45.375C63.8125 45.375 65.5312 44.7578 66.5938 43.5234C67.6719 42.2734 68.2109 40.3203 68.2109 37.6641V16.7344H75.4531ZM83.8438 51V16.7344H91.1094V51H83.8438ZM99.7344 51V16.7344H107V45H120.898V51H99.7344Z" fill="#333333"/>
<path d="M141.383 51L133.133 24.1172H132.922C133.219 29.5859 133.367 33.2344 133.367 35.0625V51H126.875V16.7344H136.766L144.875 42.9375H145.016L153.617 16.7344H163.508V51H156.734V34.7812C156.734 34.0156 156.742 33.1328 156.758 32.1328C156.789 31.1328 156.898 28.4766 157.086 24.1641H156.875L148.039 51H141.383ZM191.891 51H172.156V16.7344H191.891V22.6875H179.422V30.2109H191.023V36.1641H179.422V45H191.891V51Z" fill="#C9A254"/>
<rect x="11" y="6" width="189" height="3" rx="1.5" fill="#C9A254"/>
<rect y="56" width="210" height="3" rx="1.5" fill="#C9A254"/>
<rect x="3" y="29" width="5" height="3" fill="#333333"/>
<rect x="200" y="30" width="5" height="3" fill="#333333"/>
</svg>
