<svg width="189" height="143" viewBox="0 0 189 143" fill="none" xmlns="http://www.w3.org/2000/svg">
<rect x="24" y="101" width="16" height="15" fill="#333333"/>
<path d="M12.7545 25.6016H28.7506C36.0396 25.6016 41.3248 26.6445 44.606 28.7305C47.9107 30.793 49.5631 34.0859 49.5631 38.6094C49.5631 41.6797 48.8365 44.1992 47.3834 46.168C45.9537 48.1367 44.0435 49.3203 41.6529 49.7188V50.0703C44.9107 50.7969 47.2545 52.1562 48.6842 54.1484C50.1373 56.1406 50.8638 58.7891 50.8638 62.0938C50.8638 66.7812 49.1646 70.4375 45.7662 73.0625C42.3912 75.6875 37.7974 77 31.9849 77H12.7545V25.6016ZM23.6529 45.957H29.981C32.9342 45.957 35.067 45.5 36.3795 44.5859C37.7154 43.6719 38.3834 42.1602 38.3834 40.0508C38.3834 38.082 37.6568 36.6758 36.2037 35.832C34.774 34.9648 32.5006 34.5312 29.3834 34.5312H23.6529V45.957ZM23.6529 54.6055V68H30.7545C33.7545 68 35.9693 67.4258 37.399 66.2773C38.8287 65.1289 39.5435 63.3711 39.5435 61.0039C39.5435 56.7383 36.4967 54.6055 30.4029 54.6055H23.6529ZM102.965 25.6016V58.8594C102.965 62.6562 102.11 65.9844 100.399 68.8438C98.7115 71.7031 96.2623 73.8945 93.0513 75.418C89.8404 76.9414 86.0435 77.7031 81.6607 77.7031C75.0513 77.7031 69.9185 76.0156 66.2623 72.6406C62.606 69.2422 60.7779 64.6016 60.7779 58.7188V25.6016H71.6412V57.0664C71.6412 61.0273 72.4381 63.9336 74.0318 65.7852C75.6256 67.6367 78.2623 68.5625 81.942 68.5625C85.5045 68.5625 88.0826 67.6367 89.6763 65.7852C91.2935 63.9102 92.1021 60.9805 92.1021 56.9961V25.6016H102.965ZM115.551 77V25.6016H126.45V77H115.551ZM139.387 77V25.6016H150.286V68H171.133V77H139.387Z" fill="#333333"/>
<path d="M88.2305 133L75.8555 92.6758H75.5391C75.9844 100.879 76.207 106.352 76.207 109.094V133H66.4688V81.6016H81.3047L93.4688 120.906H93.6797L106.582 81.6016H121.418V133H111.258V108.672C111.258 107.523 111.27 106.199 111.293 104.699C111.34 103.199 111.504 99.2148 111.785 92.7461H111.469L98.2148 133H88.2305ZM163.992 133H134.391V81.6016H163.992V90.5312H145.289V101.816H162.691V110.746H145.289V124H163.992V133Z" fill="#C9A254"/>
</svg>
